<?xml version="1.0" encoding="utf-8"?>
<!-- Generator: Adobe Illustrator 28.0.0, SVG Export Plug-In . SVG Version: 6.00 Build 0)  -->
<svg version="1.1" id="Layer_1" xmlns="http://www.w3.org/2000/svg" xmlns:xlink="http://www.w3.org/1999/xlink" x="0px" y="0px"
	 viewBox="0 0 165 43" style="enable-background:new 0 0 165 43;" xml:space="preserve">
<style type="text/css">
	.st0{fill-rule:evenodd;clip-rule:evenodd;fill:#D7282F;}
	.st1{fill:#231F20;}
</style>
<g>
	<path class="st0" d="M74.15,0v17.22c0.54,0,0.95-0.04,1.32-0.15c0.67-0.19,1.24-0.61,2.03-0.78c0.79-0.16,1.79-0.07,2.4,0.24
		c0.61,0.32,0.83,0.86,0.69,1.33c-0.14,0.47-0.65,0.87-1.3,1.14c-0.65,0.27-1.46,0.4-2.07,0.29c-0.61-0.11-1.03-0.46-1.34-0.75
		c-0.3-0.29-0.49-0.51-0.87-0.62c-0.2-0.06-0.46-0.08-0.85-0.08v3.76c0.51-0.01,0.92-0.04,1.23-0.09c0.63-0.11,0.91-0.34,1.43-0.45
		c0.52-0.1,1.28-0.08,1.96-0.03c0.69,0.05,1.3,0.11,1.57,0.39c0.02,0.02,0.03,0.04,0.05,0.06H78.1v0.13l2.39,0.1
		c0.03,0.13,0.02,0.27-0.02,0.4H78.1v0.17l2.21,0.09c-0.02,0.02-0.03,0.03-0.05,0.05c-0.27,0.24-0.76,0.23-1.45,0.26
		c-0.69,0.03-1.59,0.11-2.14,0.08c-0.55-0.04-0.76-0.19-0.97-0.32c-0.21-0.13-0.44-0.24-1.03-0.29c-0.15-0.01-0.33-0.02-0.53-0.03
		v2.33c0.97-0.08,2.18-0.07,3.32,0.11c1.19,0.2,2.3,0.59,2.77,0.88c0.47,0.29,0.3,0.49-0.27,0.54c-0.57,0.06-1.55-0.02-3.24-0.1
		c-0.75-0.03-1.64-0.07-2.58-0.1V43h16.71V0H74.15z"/>
	<g>
		<path class="st1" d="M87.91,17.94v7.09c0,1.81-1.46,3.27-3.25,3.27H81.7V14.67h2.96c0.12,0,0.23,0.02,0.35,0.02
			C86.64,14.87,87.91,16.25,87.91,17.94z M86.94,17.94c0-1.27-1.03-2.28-2.28-2.28h-1.97v11.65h1.97c1.25,0,2.28-1.01,2.28-2.28
			V17.94z"/>
		<path class="st1" d="M89.86,28.33V14.69h0.99v13.64H89.86z"/>
	</g>
	<g>
		<path class="st1" d="M82.53,29.36L79.12,43h-0.78l-3.59-13.64h1.01l2.94,11.18l2.79-11.18H82.53z"/>
		<path class="st1" d="M90.85,31.76v8.83c0,1.33-1.07,2.4-2.4,2.4h-1.58c-1.33,0-2.4-1.07-2.4-2.4v-8.83c0-1.25,0.96-2.27,2.17-2.4
			c0.08,0,0.16,0,0.23,0h1.58c0.08,0,0.18,0,0.25,0C89.92,29.5,90.85,30.51,90.85,31.76z M89.86,31.76c0-0.78-0.63-1.43-1.41-1.43
			h-1.58c-0.78,0-1.41,0.64-1.41,1.43v8.83c0,0.78,0.63,1.43,1.41,1.43h1.58c0.78,0,1.41-0.64,1.41-1.43V31.76z"/>
	</g>
	<g>
		<path class="st1" d="M83.33,0v0.97h-3.27v12.67h-0.99V0.97h-3.53V0H83.33z"/>
		<path class="st1" d="M90.85,13.64h-1.01L87.42,1.91c-0.49,1.85-1.4,5.3-3.16,11.73h-1.03C84.6,8.61,86.49,1.66,86.92,0h1.13
			L90.85,13.64z"/>
	</g>
</g>
</svg>
